<?xml version="1.0" encoding="utf-8"?>
<!-- Generator: Adobe Illustrator 28.2.0, SVG Export Plug-In . SVG Version: 6.00 Build 0)  -->
<svg version="1.1" xmlns="http://www.w3.org/2000/svg" xmlns:xlink="http://www.w3.org/1999/xlink" x="0px" y="0px"
	 viewBox="0 0 500 500" style="enable-background:new 0 0 500 500;" xml:space="preserve">
<style type="text/css">
	.st0{fill:#FFB6C1;}
	.st1{fill:#820724;}
</style>
<g id="BACKGROUND">
</g>
<g id="OBJECTS">
	<g>
		<g>
			<g>
				<polygon class="st0" points="238.45,118.41 167.5,0 35.3,0 189.54,216.19 				"/>
				<path d="M238.45,118.41C221.05,89.3,183.98,28.62,167.5,0.31c0,0-132.2,0.14-132.2,0.14s0.36-0.7,0.36-0.7
					s38.6,54.02,38.6,54.02c24.46,34.37,90.23,126.74,115.51,162.27c0,0-0.48,0.04-0.48,0.04S238.45,118.41,238.45,118.41
					L238.45,118.41z M238.45,118.41c0,0-48.66,97.91-48.66,97.91s-0.21,0.41-0.21,0.41s-0.27-0.38-0.27-0.38
					C163.63,180.43,98.27,89.03,73.46,54.33c0,0-38.53-54.07-38.53-54.07s-0.5-0.7-0.5-0.7c0,0,0.86,0,0.86,0
					c0.27,0.15,132.39-0.15,132.46,0.29C185.39,29.38,220.9,88.84,238.45,118.41L238.45,118.41z"/>
			</g>
			<g>
				<path class="st1" d="M392.21,78.57c5.69-6.75,10.72-12.86,14.82-18.08L456.64,0h-8.92h-41.65h-98.9
					c0,0-122.38,187.64-125.99,201.57c-3.61,13.93-16.96,95.46,1.95,150.02c0,0,20.85,59.95,24.46,66.66
					c3.61,6.71,48.5,50.7,51.86,49.6c3.35-1.1,10.95-5.74,4.57-17.61c0,0,18.39,23.67,24.06,20.64c5.67-3.03,6.19-18.57-2.58-30.44
					c-8.77-11.87-34.05-64.67-29.93-101.22c4.13-36.54,15.41-1.01,15.41-1.01s17.61,49.08,24.32,56.82
					c6.71,7.74,17.54,6.71,22.19,3.1c4.64-3.61-26.83-94.42-27.86-100.61c-1.03-6.19-16.72-48.54-15.87-69.98
					C274.41,210.8,350.71,127.78,392.21,78.57L392.21,78.57L392.21,78.57z"/>
				<path d="M392.21,78.57c0,0,64.32-78.65,64.32-78.65C457.4,0.4,307,0.17,307.17,0.28c0,0,0.23-0.13,0.23-0.13
					c-37.61,58.09-75.4,116.1-111.37,175.23c-4.42,7.42-8.91,14.82-12.85,22.51c-0.63,1.16-1.25,2.68-1.67,3.9
					c-2.9,12.62-4.5,25.53-5.84,38.41c-2.7,28.63-3.23,57.71,1.57,86.14c1.77,11.22,5.24,22.57,9.15,33.24
					c6.72,18.61,13.36,38.58,20.85,56.81c1.06,2.67,3.07,4.72,4.92,6.88c3.82,4.3,7.83,8.44,11.88,12.54
					c8.12,8.18,16.4,16.22,25.02,23.86c2.16,1.9,4.35,3.78,6.62,5.51c1.08,0.82,2.38,1.84,3.59,2.2c1.15-0.39,2.34-0.99,3.3-1.79
					c4.94-3.73,3.71-10.36,1.01-15.14c0,0,0.78-0.51,0.78-0.51c3.39,4.12,19.5,24.57,24.26,19.98c1.88-1.67,2.58-4.24,2.94-6.68
					c0.44-3.36,0.12-6.82-0.67-10.14c-1.17-5.06-3.59-9.61-6.7-13.75c-2.88-4.35-5.32-8.96-7.65-13.62
					c-13.37-27.74-28.7-69.79-18.46-100.17c2.24-5.28,5.66-3.33,8,0.6c1.85,2.99,3.18,6.22,4.39,9.48
					c2.27,6.54,4.72,13.01,7.19,19.47c3.73,9.68,7.52,19.34,11.86,28.76c1.86,3.85,3.58,7.87,6.29,11.18
					c5.18,5.88,14.93,7.31,21.41,2.81c0.39-0.38,0.33-1,0.38-1.56c-0.13-4.29-1.29-8.49-2.24-12.67
					c-7.51-30.23-18.64-59.43-26.89-89.44c-4.98-16.56-10.43-33.04-13.47-50.12c-0.9-5.02-1.58-10.42-1.51-15.52
					c0-5.3,3.45-9.89,5.98-14.29c1.85-2.93,3.81-5.79,5.83-8.61C318.35,161.2,356.6,120.93,392.21,78.57L392.21,78.57z
					 M392.21,78.57c-35.49,42.45-73.63,82.82-106.54,127.36c-2,2.82-3.95,5.67-5.79,8.6c-2.49,4.36-5.87,8.86-5.88,14.05
					c-0.06,5.06,0.63,10.43,1.52,15.42c3.04,17.03,8.51,33.51,13.5,50.05c2.48,10.08,5.97,19.87,9.07,29.77
					c4.23,13.18,8.43,26.37,12.37,39.64c2.85,9.99,6,19.94,7.62,30.23c0.14,1.33,0.36,2.68,0.01,4.02
					c-0.06,0.28-0.27,0.53-0.45,0.69c-1.62,1.19-3.51,1.95-5.45,2.36c-6.92,1.57-14.68-1.27-18.48-7.35
					c-3.6-5.95-6.27-12.38-9.01-18.75c-5.33-12.78-10.29-25.72-14.92-38.76c-1.36-3.48-7.05-19.01-10.99-10.02
					c-10.06,30.2,5.22,71.88,18.53,99.47c2.32,4.62,4.75,9.2,7.61,13.51c3.14,4.15,5.66,8.93,6.84,14.04
					c0.82,3.4,1.15,6.95,0.7,10.46c-0.37,2.61-1.17,5.43-3.24,7.25c-5.47,5.56-22.1-15.97-25.59-20.1c0,0,0.78-0.51,0.78-0.51
					c1.35,2.58,2.5,5.4,2.51,8.43c0.24,4.44-3.07,8.45-7.18,9.8c-0.08,0.03-0.16,0.07-0.37,0.09c-0.2,0.03-0.28-0.02-0.42-0.04
					c-4-1.78-7.17-5.17-10.53-7.89c-8.66-7.66-16.95-15.69-25.09-23.88c-4.05-4.11-8.06-8.26-11.91-12.59
					c-1.9-2.2-3.98-4.39-5.07-7.13c-7.49-18.27-14.13-38.26-20.83-56.91c-3.9-10.74-7.39-22.12-9.16-33.39
					c-4.79-28.51-4.24-57.68-1.5-86.37c1.35-12.91,2.96-25.85,5.89-38.52c0.47-1.65,1.07-2.6,1.73-4.05
					c3.95-7.72,8.46-15.12,12.9-22.55c36.03-59.11,73.87-117.08,111.54-175.15c0.08-0.37,149.47,0.14,149.7,0.02
					C457.65-0.39,392.12,78.36,392.21,78.57L392.21,78.57z"/>
			</g>
			<g>
				<path class="st0" d="M287.47,380.2c0,0-11.17,20.06-21.41,19.86c-10.24-0.2-38.94-21.89-38.94-21.89s-12.83-33.6-10.5-36.16
					c2.33-2.57,16.57-0.7,21.7,4.67c5.13,5.37,9.42,13.3,9.42,13.3s3.66-1.14,8.2,0.25l-0.12-0.95c0,0-3.32-35.91,4.64-38.77
					c0,0,4.11,0.55,14.13,27.53C284.28,374.1,287.47,380.2,287.47,380.2z"/>
				<path d="M287.47,380.2c-4.33,7.22-10.9,17.43-19.36,19.85c-3.17,0.72-6.35-0.54-9.24-1.71c-11.49-5.19-21.8-12.52-31.97-19.89
					c-3.58-9.05-6.83-18.32-9.54-27.7c-0.62-2.37-1.3-4.74-1.46-7.21c-0.01-0.54-0.04-1.23,0.33-1.76c1.53-1.5,3.97-1.33,5.86-1.36
					c4.92,0.24,9.82,1.4,14.11,3.94c2.82,1.75,4.75,4.57,6.72,7.16c1.9,2.64,3.64,5.38,5.22,8.24l-0.53-0.22
					c2.79-0.72,5.72-0.55,8.46,0.27c0,0-0.56,0.47-0.56,0.47c-0.63-7.76-2.87-36.69,4.84-40.08c0,0,0.09-0.04,0.09-0.04
					c0.54,0.16,0.79,0.41,1.09,0.66c3.58,3.79,5.59,8.76,7.79,13.41C275.92,349.34,280.59,365.21,287.47,380.2L287.47,380.2z
					 M287.47,380.2c-4.69-9.94-8.53-20.25-12.5-30.49c-2.93-7.68-5.86-15.39-9.81-22.61c-1.34-2.21-2.56-4.79-4.74-6.27
					c0,0,0.16-0.02,0.16-0.02c-0.72,0.29-1.3,0.86-1.79,1.5c-4.74,8.02-3.21,28.28-2.42,37.85c0,0,0.07,0.65,0.07,0.65
					s-0.63-0.19-0.63-0.19c-2.67-0.78-5.62-0.92-8.3-0.13c0,0-0.18-0.32-0.18-0.32c-1.56-2.79-3.31-5.51-5.2-8.1
					c-1.92-2.5-3.78-5.18-6.48-6.88c-2.67-1.65-5.77-2.65-8.88-3.28c-2.98-0.51-6.45-1.07-9.28,0c-0.8,0.34-0.73,0.84-0.73,1.58
					c0.15,2.37,0.8,4.71,1.4,7.02c2.43,9.05,6.3,19.21,9.15,27.36c10.07,7.37,20.36,14.77,31.74,19.97
					c2.81,1.14,5.88,2.44,8.95,1.79C276.41,397.37,283.08,387.28,287.47,380.2L287.47,380.2z"/>
			</g>
			<g>
				<path class="st0" d="M197.29,361.38c0,0-6.24-15-14.79-11.65c-8.74,3.42,4.37,42.4,4.37,42.4l15.33,2.89L197.29,361.38z"/>
				<path d="M197.29,361.38c-2.27-4.68-5.26-10.04-10.47-11.78c-2.51-0.74-5.81,0.18-6.43,2.94c-1.4,5.19-0.2,10.76,0.7,15.96
					c1.56,7.95,3.79,15.77,6.23,23.48c0,0-0.35-0.31-0.35-0.31c3.82,0.72,11.5,2.25,15.3,3.03c0,0-0.38,0.36-0.38,0.36
					C200.79,386.66,198.49,369.76,197.29,361.38L197.29,361.38z M197.29,361.38c1.28,8.61,3.91,25.45,5.3,34.04
					c-4.06-0.7-11.76-2.07-15.8-2.83c0,0-0.27-0.05-0.27-0.05l-0.09-0.26c-1.74-5.15-3.22-10.37-4.48-15.66
					c-1.38-6.42-4.92-20.54-0.91-26.03c0.93-1.1,2.43-1.39,3.79-1.46C191.14,349.43,194.89,356.31,197.29,361.38L197.29,361.38z"/>
			</g>
			<g>
				<path class="st0" d="M292.48,196.36c0,0,26.3,17.2,31.67,54.19c5.37,36.99-4.61,92.29-15.9,106.61l-12.95-41.09
					c0,0-31.62,30.51-35.86,29.21c-4.24-1.3-13.17-15.11-11.5-23.16c1.68-8.06,28.2-40.62,28.2-40.62S246.91,229.4,292.48,196.36z"
					/>
				<path d="M292.48,196.36c11.75,8.49,20.72,20.64,26.32,33.95c5.69,13.44,7.08,28.2,7.14,42.66c0.1,22.51-4.58,67.12-17.85,85.11
					c0,0-0.25-0.8-0.25-0.8s-13.01-41.07-13.01-41.07s0.82,0.21,0.82,0.21c-10.34,9.62-20.48,19.64-32.13,27.69
					c-1.2,0.69-2.24,1.46-3.7,1.63c-0.17,0.02-0.49-0.03-0.62-0.11c-2.31-1-3.92-3.09-5.41-5.03c-3.33-4.73-6.16-10.22-6.41-16.11
					c-0.12-1.99,0.56-3.99,1.46-5.7c7.55-13.5,17.55-25.38,27.07-37.5c0,0-0.03,0.35-0.03,0.35
					C260.6,251.19,263.17,217.06,292.48,196.36L292.48,196.36z M292.48,196.36c-28.96,20.83-31.28,54.75-16.06,84.98
					c0,0,0.1,0.19,0.1,0.19s-0.13,0.16-0.13,0.16c-9.44,12.08-19.42,24.02-26.87,37.44c-0.87,1.69-1.47,3.46-1.36,5.35
					c0.26,5.69,3.05,11.05,6.3,15.62c1.4,1.81,2.9,3.77,5.01,4.72c0.14,0.08,0.18,0.06,0.32,0.06c1.1-0.14,2.28-0.91,3.26-1.5
					c11.78-8.21,22.02-18.44,32.49-28.23c0,0,0.24,0.76,0.24,0.76l12.89,41.11c0,0-0.75-0.14-0.75-0.14
					c12.77-18.44,17.43-61.28,17.44-83.91c-0.01-14.41-1.4-29.07-6.91-42.51C312.98,217.14,304.14,204.94,292.48,196.36
					L292.48,196.36z"/>
			</g>
			<g>
				<path class="st0" d="M221.94,376.49c0,0-11.92-25.72-22.34-24.28c-10.41,1.45-4.63,43.34-2.6,47.85
					c2.02,4.5,38.32,14.26,38.32,14.26L221.94,376.49z"/>
				<path d="M221.94,376.49c-3.5-7.01-7.47-13.97-12.98-19.6c-2.65-2.54-6.35-5.5-10.2-4.25c-3.5,1.9-3.89,6.62-4.45,10.2
					c-0.57,5.19-0.4,10.45-0.06,15.66c0.59,7.11,1.19,14.36,3.16,21.22c0.2,0.45,0.63,0.84,1.15,1.21c2.08,1.42,4.54,2.43,6.94,3.42
					c9.75,3.8,19.83,6.84,29.89,9.73c0,0-0.29,0.31-0.29,0.31C231.85,404.94,225.27,385.93,221.94,376.49L221.94,376.49z
					 M221.94,376.49c3.34,9.42,10.18,28.36,13.61,37.75c0,0,0.15,0.43,0.15,0.43c-5.23-1.37-10.43-2.83-15.61-4.39
					c-7.52-2.44-15.26-4.45-22.11-8.55c-2.36-1.5-2.22-5.02-2.84-7.48c-0.87-5.2-1.43-10.44-1.75-15.69
					c-0.21-6.32-1.21-23.16,5.23-26.28C208.16,349.61,218.42,369.36,221.94,376.49L221.94,376.49z"/>
			</g>
		</g>
		<g>
			<g>
				<path class="st0" d="M313.01,280.85c-4.59,18.68-17.7,35.22-17.7,35.22l-20.13,18.4c0,0-11.88,10.38-15.73,10.81
					c-3.85,0.44-15.14-18.34-10.16-26.53"/>
				<path d="M313.01,280.85c-2.82,13.02-9.14,25.08-16.99,35.78c-4.71,4.45-9.52,8.8-14.28,13.19
					c-5.93,5.43-12.03,10.99-19.03,15.06c-0.92,0.47-2.05,1.03-3.09,1.18c-0.8,0.11-1.6-0.28-2.21-0.72
					c-5.93-4.79-12.52-19.55-8.13-26.59c-3.65,7.06,3.32,20.77,9,25.31c0.41,0.25,0.75,0.47,1.13,0.41
					c0.79-0.15,1.75-0.68,2.47-1.07c6.73-4.13,12.72-9.7,18.52-15.06c4.76-4.32,9.5-8.66,14.3-12.94
					C302.16,305.61,309.33,293.26,313.01,280.85L313.01,280.85z"/>
			</g>
			<g>
				<path class="st1" d="M276.77,464.54c0,0-31.49-35.13-40.56-48.74c-9.07-13.6-25.11-80.22-25.11-80.22"/>
				<path d="M276.77,464.54c-8.48-8.93-16.76-18.04-24.79-27.38c-5.96-7.1-12.15-14.02-17.18-21.86c-1.54-2.57-2.89-5.7-3.99-8.49
					c-8.7-23.09-14.43-47.16-19.71-71.22c6.79,23.6,12.85,47.51,21.56,70.47c1.05,2.69,2.33,5.73,3.8,8.21
					c4.89,7.71,11,14.73,16.7,21.88C260.98,445.65,268.87,455.1,276.77,464.54L276.77,464.54z"/>
			</g>
			<g>
				<path class="st0" d="M249.11,330.25c0,0,15.48-21.66,23.12-15.87c7.64,5.79,7.16,15.51-3.93,25.67"/>
				<path d="M249.11,330.25c4.06-6.3,11.68-16.7,19.57-17.79c4.27-0.41,7.61,3.96,8.97,7.62c2.52,7.95-3.49,15.38-9.35,19.98
					c4.61-5.14,10.04-12.14,7.56-19.36c-0.78-2.16-2.29-4.03-4.18-5.46c-1.6-1.36-3.99-0.89-6.09,0.15
					C259.06,318.87,254.09,324.77,249.11,330.25L249.11,330.25z"/>
			</g>
			<g>
				<path class="st0" d="M305.68,400.07c-0.9,0.45-10.99-27.68,5.83-31.92"/>
				<path d="M305.68,400.07c-0.21-0.02-0.31-0.24-0.44-0.37c-1.62-2.45-2.53-5.3-3.28-8.13c-1.8-7.3-2.14-17.38,5.08-21.94
					c1.39-0.82,2.93-1.31,4.47-1.48c-9.51,3.44-9.33,14.74-8.03,23.11c0.46,2.81,0.96,5.66,1.89,8.36
					C305.46,399.78,305.5,400.01,305.68,400.07L305.68,400.07z"/>
			</g>
			<g>
				<path class="st0" d="M221.58,342.46c0,0,12.57,15.98,5.84,24.51"/>
				<path d="M221.58,342.46c5.73,5.34,12.61,17.76,5.84,24.51C231.28,359.07,224.9,349.62,221.58,342.46L221.58,342.46z"/>
			</g>
			<g>
				<path class="st0" d="M247.74,359.97c0,0,16.7-3.44,26.19,11.54"/>
				<path d="M247.74,359.97c8.7-2.8,19.13,0.6,24.31,8.18c0.76,1.03,1.3,2.23,1.89,3.36c-0.46-0.46-0.9-0.92-1.33-1.38
					C266.39,363.06,257.05,359.82,247.74,359.97L247.74,359.97z"/>
			</g>
			<g>
				<path class="st0" d="M231.63,342.75c0,0,15.53,6.64,18.61,29.62"/>
				<path d="M231.63,342.75c10.31,3.77,16.77,14.53,18.28,25.04c0.19,1.52,0.28,3.06,0.33,4.58c-0.49-1.46-0.84-2.93-1.29-4.36
					C245.94,358.07,240.38,348.67,231.63,342.75L231.63,342.75z"/>
			</g>
			<g>
				<path class="st0" d="M267.65,454.22c0,0,5.06-5.21,11.56,1.02c6.5,6.23,11.53,12.6,11.53,12.6"/>
				<path d="M267.65,454.22c2.58-3.45,7.63-3.34,10.85-0.82c2.97,2.38,5.55,5.28,7.94,8.21c1.57,1.97,3.06,4.01,4.3,6.23
					c-3.76-3.39-7.22-6.95-10.76-10.44C276.61,453.68,272.57,451.05,267.65,454.22L267.65,454.22z"/>
			</g>
			<g>
				<path class="st0" d="M238.82,450.95c0,0,4.72-6.45,12.14-1.01c7.43,5.44,13.05,13.66,13.05,13.66"/>
				<path d="M238.82,450.95c6.28-9.24,15.86-0.15,20.66,5.78c1.73,2.13,3.3,4.41,4.53,6.87c-1.91-1.97-3.77-3.93-5.69-5.82
					c-1.92-1.89-3.85-3.74-5.91-5.42c-2.05-1.74-4.09-3.32-6.53-3.77C243.47,448.13,240.85,449.11,238.82,450.95L238.82,450.95z"/>
			</g>
			<g>
				<path class="st0" d="M201.37,352.16c0,0-8.23-1.74-7.7,14.72c0.52,16.46,1.44,32.74,4.67,34.52c3.23,1.78,25.62,9.67,25.62,9.67
					"/>
				<path d="M201.37,352.16c-7.69,0.1-7.13,10.75-6.88,16.26c0.4,6.77,0.71,13.55,1.4,20.25c0.35,3.33,0.73,6.73,1.69,9.8
					c0.32,0.87,0.59,1.7,1.21,2.15c2.04,1.03,4.19,1.85,6.31,2.74c6.28,2.53,12.59,5.07,18.85,7.7c-6.53-1.9-13.01-3.95-19.41-6.25
					c-2.22-0.8-4.47-1.59-6.62-2.62c-1.18-0.67-1.74-2.07-2.13-3.11c-1.13-3.35-1.49-6.76-1.89-10.21
					c-0.66-6.81-0.88-13.61-0.96-20.4C192.82,362.79,193.29,351.41,201.37,352.16L201.37,352.16z"/>
			</g>
			<g>
				<path class="st0" d="M220.15,370.21c0,0,3.76,10.76-2.14,20.14"/>
				<path d="M220.15,370.21c3.42,6.21,2.84,14.92-2.14,20.14C220.39,383.82,220.76,377.09,220.15,370.21L220.15,370.21z"/>
			</g>
			<g>
				<path class="st0" d="M203.66,354.28c0,0,4.93,20.02-9.16,22.09"/>
				<path d="M203.66,354.28c2.9,7.1,2.79,18.55-5.71,21.61c-1.13,0.38-2.31,0.5-3.45,0.48C204.19,373.6,203.99,362.55,203.66,354.28
					L203.66,354.28z"/>
			</g>
			<g>
				<path class="st0" d="M184.56,352.16c0,0,5.38,13.97-3.97,15.92"/>
				<path d="M184.56,352.16c2.97,4.44,4.34,12.81-1.53,15.54c-0.8,0.3-1.63,0.42-2.44,0.39c0.71-0.4,1.39-0.76,1.95-1.24
					C186.59,363.18,184.82,357.17,184.56,352.16L184.56,352.16z"/>
			</g>
			<g>
				<path class="st1" d="M174.68,246.77c0,0,2.2-33.92,5.98-43.03c3.78-9.11,19.17-35.36,19.17-35.36"/>
				<path d="M174.68,246.77c0.41-14.01,0.93-28.14,4.49-41.78c2.48-6.65,6.17-12.64,9.62-18.79c3.5-6.05,7.19-11.99,11.04-17.82
					c-3.18,6.23-6.42,12.41-9.68,18.58c-3.08,6.15-6.72,12.2-9.09,18.64C177.81,217.18,176.42,234.72,174.68,246.77L174.68,246.77z"
					/>
			</g>
		</g>
	</g>
	<g>
		<g>
			<path class="st0" d="M394.06,102.38c-10.35-10.89-25.22-17.02-39.59-20.48c-32.59-7.85-67.6-2.68-99.66,5.27
				c-2.67,0.66-5.34,1.37-7.99,2.09c-10.86-7.34-22.83-12.79-35.11-17.3c-1.55-0.57-2.25,1.94-0.69,2.49
				c11.67,4.06,22.94,9.11,33.55,15.43c-31.82,8.83-62.39,21.39-93.47,32.51c-10.1,3.61-20.26,7.36-30.71,9.86
				c-10.28,2.46-22.49,4.25-32.59,0.08c-11.15-4.61-13.03-17.11-10.59-27.77c2.23-9.78,8.02-18.08,15.29-24.81
				c1.41-1.3-0.7-3.4-2.1-2.1c-10.36,9.57-17.93,22.83-17.05,37.31c0.88,14.56,11.45,21.82,25.26,22.6
				c18.02,1.02,35.74-6.08,52.4-12.02c16.73-5.97,33.28-12.47,49.98-18.52c32.75-11.87,66.64-22.13,101.51-25.07
				c17.04-1.44,34.49-1.15,51.18,2.89c15.59,3.77,32.13,10.79,41.72,24.28c10.82,15.22,9.47,38.26-9.05,46.57
				c-18.43,8.27-37.74-0.82-53.33-10.89c-1.92-1.24-3.69,1.82-1.79,3.06c13.21,8.6,28.12,16.23,44.36,14.46
				c12.85-1.4,24.92-8.77,28.89-21.6C408.62,127.22,403.53,112.34,394.06,102.38z"/>
			<path d="M394.06,102.38c-11.25-11.64-26.96-17.75-42.54-21.07c-22.03-4.78-44.91-3.71-67.04-0.18
				c-12.71,2.02-25.33,5.03-37.74,8.24c-5.54-3.74-11.39-7-17.41-9.88c-5.26-2.52-10.69-4.76-16.16-6.81c0,0-1.17-0.44-1.17-0.44
				c-0.4-0.16-0.75-0.29-1.07-0.12c-0.65,0.29-0.81,1.36-0.29,1.86c0.23,0.27,0.65,0.34,1.05,0.5c11.45,4,22.57,9.01,33,15.21
				c0,0,0.43,0.25,0.43,0.25s-0.48,0.13-0.48,0.13c-43.73,11.65-84.6,32.36-128.47,43.45c-4.44,0.9-8.96,1.56-13.51,1.62
				c-15.85,0.34-27.34-6.45-26.72-23.77c0.42-12.43,7.3-23.68,16.27-31.91c0.52-0.45,0.44-1.13-0.11-1.56
				c-0.43-0.35-1.02-0.32-1.4,0.04c-6.45,6-11.8,13.36-14.71,21.72c-6.63,19.9,1.26,36.78,23.64,37.42
				c22.77,0.57,43.89-9.82,65.02-17.01c57.19-21.27,122.22-47.53,184.16-36.59c17.49,3.6,35.86,10.47,46.72,25.43
				c7.85,10.95,9.8,27.13,1.57,38.4c-5.42,7.47-14.73,11.11-23.71,11.64c-13.76,0.72-26.7-5.54-38.12-12.6c0,0-1.43-0.91-1.43-0.91
				c-0.48-0.28-0.95-0.67-1.44-0.8c-1.11-0.29-2.01,0.95-1.86,1.96c0.07,0.54,0.45,0.95,0.92,1.23l1.43,0.92
				c15.69,10.34,35.8,18.47,54.18,10.45C411.18,148.86,410.48,119.62,394.06,102.38L394.06,102.38z M394.06,102.38
				c10.05,10.55,15.14,26.79,9.58,40.71c-4.77,11.8-17.35,18.68-29.69,19.41c-15.51,1.18-29.98-6.24-42.64-14.44
				c-1.9-0.93-0.95-4.03,1.12-3.63c0.6,0.17,1.03,0.55,1.52,0.83c8.09,5.12,16.69,9.7,26.01,12.03
				c12.79,3.35,28.57,0.99,36.82-10.19c8.1-11.14,6.14-27.12-1.63-37.92c-10.8-14.82-29.08-21.61-46.47-25.15
				c-61.8-10.81-126.72,15.56-183.75,36.88c-8.48,3.16-16.99,6.22-25.51,9.26c-12.77,4.46-26.16,8.47-39.85,7.91
				c-22.86-0.7-31.38-18.07-24.45-38.7c3.08-8.6,8.55-16.38,15.42-22.35c1.88-0.97,3.85,1.63,2.2,3.05
				c-11.83,10.63-20.89,28.81-13.41,44.26c6.97,12.32,24.69,10.9,36.68,8.53c43.85-11.01,84.72-31.62,128.49-43.2
				c0,0-0.05,0.39-0.05,0.39c-10.4-6.21-21.49-11.22-32.9-15.24c0,0-0.59-0.21-0.59-0.21c-1.22-0.37-1.36-2.25-0.19-2.8
				c0.46-0.24,0.99-0.03,1.34,0.11l1.18,0.44c5.47,2.06,10.91,4.31,16.17,6.85c6.03,2.9,11.89,6.18,17.43,9.93
				c11.79-3.32,25.05-6.17,37.55-8.22c22.16-3.5,45.06-4.53,67.1,0.3C367.12,84.57,382.83,90.71,394.06,102.38L394.06,102.38z"/>
		</g>
		<g>
			<path class="st0" d="M290.88,370.13c-5.28-21.16-8.78-42.94-8.43-64.79c3.62,3.56,7.27,7.09,10.84,10.65
				c0.68,0.67,1.7-0.36,1.04-1.04c-3.27-3.43-6.56-6.9-9.93-10.31c4.31,1.55,8.5,3.37,12.82,4.92c0.59,0.21,0.96-0.7,0.42-1.01
				c-4.83-2.73-10.41-5.06-16.16-6.83c-3.99-3.94-8.09-7.75-12.39-11.27c-0.34-0.27-0.77,0.15-0.48,0.48
				c2.93,3.32,5.99,6.55,9.12,9.72c-4.92-1.29-9.9-2.17-14.58-2.5c-0.49-0.04-0.58,0.73-0.12,0.85c5.7,1.5,11.49,2.54,17.14,4.23
				c-0.84,34.24,7.56,68.43,18.8,100.54c6.01,17.17,14.13,36.61,10.91,55.16c-1.63,9.37-6.95,19.02-16.35,22.42
				c-9.9,3.58-19.41-1.1-23.54-10.48c-6.87-15.62,2.14-36.57-10.11-50.12c0.2-0.13,0.4-0.25,0.6-0.38
				c3.89-0.39,7.83-0.49,11.84-0.27c1.04,0.06,1.04-1.57,0-1.62c-2.86-0.14-5.74-0.13-8.6,0.01c2.47-1.32,5.05-2.47,7.82-3.39
				c1.08-0.36,0.62-2.09-0.47-1.72c-4.07,1.37-8.01,3.18-11.65,5.43c-6.03,0.61-11.98,1.87-17.69,3.93
				c-0.92,0.33-0.55,1.8,0.41,1.49c4.72-1.49,9.43-2.62,14.19-3.34c-3.36,2.46-6.39,5.36-8.93,8.73c-0.37,0.5,0.42,1.07,0.85,0.65
				c3.39-3.38,6.92-6.41,10.74-8.97c11.06,15.58,1.44,35.37,9.78,51.83c6.96,13.73,24.49,14.76,34.66,3.85
				c12.43-13.33,9.4-33.74,5.12-49.77C303.42,407.96,295.72,389.52,290.88,370.13z"/>
			<path d="M290.88,370.13c-5.17-20.95-9.17-43.81-8.37-64.85c1.99,1.9,6.63,6.52,8.52,8.35c0,0,1.42,1.39,1.42,1.39
				s0.71,0.7,0.71,0.7c0.23,0.25,0.46,0.45,0.75,0.37c0.28-0.06,0.51-0.33,0.53-0.61c0.03-0.29-0.22-0.5-0.46-0.75
				c-2.55-2.67-7.09-7.32-9.66-10.01c0,0-0.37-0.38-0.37-0.38l0.5,0.18c4.34,1.54,8.58,3.43,12.93,4.92
				c0.12,0.01,0.23-0.05,0.3-0.17c0.4-0.58-0.56-0.79-1.09-1.15c-4.83-2.6-9.95-4.65-15.19-6.27c-3.7-3.64-7.51-7.19-11.5-10.51
				c0,0-0.75-0.62-0.75-0.62l-0.18-0.15c-0.09-0.09-0.25-0.01-0.26,0.1c-0.02,0.06,0.05,0.13,0.18,0.27c0.07,0.07,0.88,0.93,1,1.06
				c0,0,2.66,2.83,2.66,2.83c0.18,0.17,5.82,6.21,5.82,6.18c-4.29-1.14-8.66-2.01-13.08-2.47c-0.7-0.07-1.39-0.13-2.09-0.18
				c-0.16-0.01-0.16,0.01-0.22,0.09c-0.04,0.08-0.03,0.21,0.02,0.26c0.03,0.03,0.05,0.04,0.1,0.06l0.25,0.07
				c5.6,1.45,11.32,2.48,16.89,4.15c0,0,0.18,0.05,0.18,0.05s0,0.19,0,0.19c-0.71,33.74,7.31,67.01,18.32,98.7
				c6.29,18.34,14.85,37.48,11.54,57.32c-1.52,8.33-5.75,16.64-13.29,21.03c-11.09,6.37-23.81,1.21-28.03-10.72
				c-5.82-15.66,2.46-35.03-9.37-48.54c0,0-0.32-0.36-0.32-0.36s0.4-0.25,0.4-0.25l0.6-0.38c0,0,0.08-0.05,0.08-0.05
				s0.09-0.01,0.09-0.01c4.01-0.43,8.06-0.42,12.08-0.28c0.35-0.19,0.18-0.83-0.21-0.81c-0.94-0.05-1.9-0.08-2.85-0.1
				c-2.44-0.04-4.95,0.04-7.4,0.17c0,0,1.48-0.79,1.48-0.79c2.24-1.19,4.56-2.24,6.95-3.09c0.45-0.19,1.08-0.3,1.19-0.5
				c0.19-0.21,0.1-0.68-0.13-0.82c-0.23-0.19-0.87,0.18-1.12,0.23c-3.84,1.31-7.51,3.13-10.99,5.18c-5.8,0.58-11.56,1.77-17.06,3.7
				c0,0-0.52,0.18-0.52,0.18c-0.37,0.11-0.45,0.55-0.22,0.82c0.15,0.15,0.28,0.13,0.69-0.01c4.56-1.42,9.22-2.53,13.94-3.24
				c0,0,1.21-0.18,1.21-0.18c-2.22,1.58-4.37,3.32-6.29,5.26c-1.23,1.24-2.38,2.55-3.44,3.94c-0.24,0.3-0.21,0.26-0.13,0.41
				c0.11,0.13,0.31,0.15,0.39,0.07c3.31-3.29,6.91-6.4,10.81-9c0.3-0.2,0.17-0.17,0.36,0.07c2.51,3.56,4.12,7.7,4.93,11.95
				c2.44,12.64-1.13,26.15,4.07,38.27c4.13,10.6,15.86,15.49,26.41,11.4c10.24-3.99,16.05-14.77,17.17-25.31
				c1.45-12.91-1.92-25.74-5.54-38.04C301.33,402.95,295.05,386.86,290.88,370.13L290.88,370.13z M290.88,370.13
				c4.21,16.72,10.53,32.79,15.52,49.28c3.66,12.31,7.07,25.16,5.65,38.11c-1.1,10.62-6.96,21.53-17.29,25.57
				c-10.72,4.16-22.65-0.76-26.89-11.54c-5.27-12.13-1.74-25.7-4.2-38.33c-0.81-4.2-2.41-8.25-4.88-11.74l0.36,0.07
				c-3.89,2.62-7.4,5.67-10.73,8.99c-0.82,0.62-1.91-0.45-1.09-1.25c2.5-3.29,5.51-6.17,8.84-8.61c0,0,0.22,0.54,0.22,0.54
				c-4.69,0.72-9.32,1.83-13.84,3.26c-0.35,0.14-1.05,0.26-1.35-0.16c-0.35-0.39-0.41-0.97-0.12-1.42c0.22-0.37,0.75-0.5,1.11-0.63
				c5.55-1.96,11.35-3.18,17.21-3.78c2.89-1.98,7.68-4.11,11.54-5.42c0.28-0.11,0.72-0.13,1.04,0.1c0.61,0.44,0.74,1.27,0.31,1.87
				c-0.2,0.3-0.62,0.45-0.81,0.5c-0.68,0.21-1.44,0.52-2.11,0.77c-1.86,0.73-3.67,1.59-5.44,2.53c0,0-0.2-0.71-0.2-0.71
				c2.89-0.14,5.77-0.16,8.66-0.02c0.72-0.01,1.27,0.8,1.11,1.48c-0.06,0.51-0.63,0.99-1.18,0.92c0,0-0.36-0.02-0.36-0.02
				c-3.52-0.23-8.42,0.04-11.24,0.24c0,0-0.59,0.37-0.59,0.37s0.08-0.62,0.08-0.62c12.05,13.5,3.91,33.13,9.65,48.76
				c4.02,11.31,16.07,16.26,26.66,10.2c4.78-2.74,8.32-7.34,10.49-12.41c8.56-21.55-2.09-44.3-8.96-64.85
				c-10.96-31.79-18.91-65.14-18.11-98.96c0,0,0.18,0.24,0.18,0.24c-5.53-1.67-11.25-2.72-16.86-4.18c0,0-0.26-0.07-0.26-0.07
				c-0.4-0.06-0.6-0.62-0.42-0.95c0.09-0.26,0.47-0.4,0.66-0.34c0.7,0.05,1.41,0.11,2.11,0.19c4.2,0.44,8.36,1.26,12.45,2.33
				c0,0-0.2,0.34-0.2,0.34l-5.32-5.68l-2.66-2.84l-0.67-0.71c0,0-0.33-0.36-0.33-0.36c-0.13-0.13-0.31-0.32-0.28-0.55
				c0.03-0.27,0.25-0.46,0.51-0.47c0.21-0.05,0.4,0.17,0.54,0.27c4.26,3.51,8.3,7.28,12.22,11.15c4.85,1.47,10.41,3.7,15.12,6.28
				c0.34,0.24,1.23,0.52,1.3,0.96c0.1,0.42-0.2,0.93-0.67,0.9c-0.24-0.03-0.35-0.11-0.53-0.16c-4.19-1.52-8.28-3.29-12.47-4.81
				c0,0,0.13-0.2,0.13-0.2s5.51,5.74,5.51,5.74c0.96,1.03,3.21,3.32,4.13,4.3c1.27,0.97-0.16,2.47-1.12,1.28
				c-0.61-0.62-1.55-1.5-2.12-2.09c-1.87-1.89-6.59-6.45-8.5-8.37C282.41,326.71,285.49,349.09,290.88,370.13L290.88,370.13z"/>
		</g>
	</g>
	<g>
		<g>
			<path class="st0" d="M156.79,218.54c-0.25-1.52-7.45-44.9-20.8-44.4c-13.31,0.5,4.2,29.54,4.9,30.7
				c-1.25-0.53-32.54-13.6-31.09-0.35c1.46,13.28,45.43,14.05,46.97,14.08l0.03,0.02c0,0,0-0.01,0-0.02c0.01,0,0.02,0,0.02,0
				L156.79,218.54z"/>
			<path d="M156.79,218.54c-2.03-10.67-4.65-21.31-8.91-31.32c-2.22-4.66-4.68-10.2-9.66-12.31c-12.27-2.52-4.61,14.73-2.03,20.12
				c1.77,3.71,3.77,7.34,5.91,10.85c-3.78-1.6-7.66-3.05-11.6-4.26c-5.72-1.77-23.89-6.82-19.61,4.95
				c2.82,4.62,8.65,6.24,13.59,7.76C134.94,217.06,146.18,218.17,156.79,218.54L156.79,218.54z M156.79,218.54
				c-11.05-0.19-40.49-1.33-46.63-11.57c-2.01-4.04-0.31-8.13,4.38-8.65c5.53-0.69,11,0.92,16.25,2.39
				c3.49,1.06,6.92,2.28,10.3,3.67c0,0-0.62,0.72-0.62,0.72c-1.87-3.14-3.58-6.36-5.14-9.65c-2.23-4.97-4.62-10.15-4.75-15.72
				c-0.18-4.69,3.63-7.01,7.92-5.59C149.6,178.85,154.82,207.32,156.79,218.54L156.79,218.54z"/>
		</g>
		<g>
			<path class="st0" d="M159.77,229.53c-0.92-0.05-27.13-1.28-28.51,6.57c-1.38,7.83,17.76,1.26,18.53,0.99
				c-0.46,0.66-12.02,17.28-4.11,18.09c7.93,0.81,13.9-24.74,14.1-25.63l0.02-0.01c0,0-0.01,0-0.01,0c0-0.01,0-0.01,0-0.01
				L159.77,229.53z"/>
			<path d="M159.77,229.53c-4.33-0.06-8.67,0.04-12.97,0.47c-4.21,0.46-8.66,0.98-12.42,2.98c-1.75,0.89-3.26,2.77-2.61,4.75
				c0.93,1.89,3.49,1.73,5.34,1.71c4.73-0.33,9.41-1.77,13.92-3.29c-2.69,3.92-5.35,8.03-6.97,12.49c-0.53,1.77-1.38,4.19,0.19,5.6
				c1.73,1.16,3.95,0.23,5.28-1.22c2.96-3.07,4.67-7.21,6.26-11.13C157.35,237.9,158.73,233.57,159.77,229.53L159.77,229.53z
				 M159.77,229.53c-0.83,4.1-2.11,8.46-3.52,12.53c-1.55,4.07-3.16,8.23-6.18,11.5c-1.77,2.24-6.25,3.19-7.41-0.17
				c-0.74-3.93,1.6-7.65,3.27-11.02c1.06-1.91,2.2-3.76,3.44-5.57l0.57,0.76c-2.08,0.7-4.17,1.29-6.3,1.78
				c-3.7,0.69-7.92,1.92-11.5,0.14c-2.91-2.03-0.79-6.07,1.86-7.17c3.97-2,8.41-2.42,12.75-2.8
				C151.1,229.25,155.45,229.24,159.77,229.53L159.77,229.53z"/>
		</g>
	</g>
	<g>
		<g>
			<path class="st0" d="M332.09,237.38c1.37-0.71,40.36-21.03,35.74-33.56c-4.61-12.5-26.78,13.17-27.66,14.19
				c0.11-1.35,2.82-35.16-9.32-29.66c-12.17,5.51,0.75,47.55,1.21,49.01l-0.01,0.03c0,0,0.01-0.01,0.02-0.01
				c0,0.01,0.01,0.02,0.01,0.02L332.09,237.38z"/>
			<path d="M332.09,237.38c9.51-5.25,18.81-11.04,27-18.2c3.74-3.56,8.24-7.61,8.7-13.01c-1.42-12.45-15.43,0.19-19.76,4.32
				c-2.98,2.84-5.8,5.86-8.47,8.99c0.59-7.66,0.85-15.52-0.54-23.09c-0.74-3.11-1.64-7.48-5.26-8.18c-3.65-0.23-6.19,3.11-6.91,6.44
				c-1.67,7.01-0.63,14.43,0.41,21.49C328.42,223.24,330.08,230.66,332.09,237.38L332.09,237.38z M332.09,237.38
				c-3.26-10.6-11.31-38.85-3.48-47.92c3.22-3.17,7.63-2.82,9.58,1.47c2.38,5.04,2.55,10.74,2.77,16.19
				c0.07,3.65-0.02,7.29-0.29,10.93l-0.88-0.37c2.41-2.75,4.93-5.37,7.58-7.88c4.03-3.66,8.21-7.55,13.47-9.39
				c4.4-1.62,7.79,1.27,7.78,5.79C367.59,218.22,342.15,232.03,332.09,237.38L332.09,237.38z"/>
		</g>
		<g>
			<path class="st0" d="M335.46,249.21c0.66,0.41,19.66,11.94,23.86,6.67c4.2-5.26-12.7-8.13-13.38-8.24
				c0.61-0.3,15.94-7.99,10.38-11.79c-5.57-3.82-20.36,12.77-20.87,13.35l-0.02,0C335.44,249.2,335.45,249.2,335.46,249.21
				c-0.01,0-0.02,0-0.02,0L335.46,249.21z"/>
			<path d="M335.46,249.21c6.3,3.28,13.07,7.25,20.28,7.66c1.64,0.04,3.48-0.73,3.8-2.43c0.06-1.75-1.88-2.64-3.24-3.36
				c-3.71-1.69-7.86-2.52-11.89-3.21c3.65-1.85,7.38-3.85,10.43-6.56c1.09-1.08,2.69-2.51,2.12-4.16c-0.81-1.53-2.79-1.73-4.35-1.21
				c-3.43,1.07-6.39,3.45-9.16,5.71C340.67,243.98,337.89,246.64,335.46,249.21L335.46,249.21z M335.46,249.21
				c2.26-2.73,4.98-5.46,7.67-7.92c2.81-2.41,5.68-4.86,9.26-6.08c2.27-0.97,6.03,0.18,5.52,3.2c-0.36,1.46-1.43,2.6-2.46,3.58
				c-2.8,2.51-6.01,4.38-9.29,6.1l-0.14-0.94c3.64,0.69,7.25,1.54,10.66,3.12c1.27,0.64,2.63,1.41,3.4,2.7
				c1.37,2.73-1.89,4.94-4.34,4.67C348.34,257.06,341.7,252.92,335.46,249.21L335.46,249.21z"/>
		</g>
	</g>
</g>
</svg>
